<?xml version="1.0" encoding="UTF-8" standalone="no"?>
<!-- Created with Inkscape (http://www.inkscape.org/) -->

<svg
   version="1.1"
   id="svg9"
   xml:space="preserve"
   width="673.39307"
   height="178.1035"
   viewBox="0 0 673.39304 178.1035"
   sodipodi:docname="GoSysOp.svg"
   inkscape:version="1.1.1 (3bf5ae0d25, 2021-09-20)"
   xmlns:inkscape="http://www.inkscape.org/namespaces/inkscape"
   xmlns:sodipodi="http://sodipodi.sourceforge.net/DTD/sodipodi-0.dtd"
   xmlns="http://www.w3.org/2000/svg"
   xmlns:svg="http://www.w3.org/2000/svg"><defs
     id="defs13"><clipPath
       clipPathUnits="userSpaceOnUse"
       id="clipPath23"><path
         d="M 0,600 H 800 V 0 H 0 Z"
         id="path21" /></clipPath></defs><sodipodi:namedview
     id="namedview11"
     pagecolor="#ffffff"
     bordercolor="#666666"
     borderopacity="1.0"
     inkscape:pageshadow="2"
     inkscape:pageopacity="0.0"
     inkscape:pagecheckerboard="0"
     showgrid="false"
     inkscape:zoom="1.01125"
     inkscape:cx="318.91224"
     inkscape:cy="128.05933"
     inkscape:window-width="1920"
     inkscape:window-height="1017"
     inkscape:window-x="-8"
     inkscape:window-y="-8"
     inkscape:window-maximized="1"
     inkscape:current-layer="g15" /><g
     id="g15"
     inkscape:groupmode="layer"
     inkscape:label="Vector File"
     transform="matrix(1.3333333,0,0,-1.3333333,-214.55493,449.33292)"><g
       id="g17"><g
         id="g19"
         clip-path="url(#clipPath23)"><g
           id="g25"
           transform="translate(342.2793,227.0407)"><path
             d="m 0,0 c -5.627,0 -10.41,1.981 -14.348,5.942 -3.939,3.96 -5.908,8.71 -5.908,14.246 v 46.183 c 0,5.626 1.98,10.409 5.942,14.349 3.96,3.938 8.732,5.907 14.314,5.907 5.626,0 10.398,-1.981 14.314,-5.941 3.916,-3.962 5.874,-8.733 5.874,-14.315 V 56.716 H 6.955 v 9.926 c 0,2.025 -0.721,3.757 -2.161,5.199 -1.441,1.44 -3.174,2.16 -5.199,2.16 -2.026,0 -3.747,-0.72 -5.165,-2.16 -1.418,-1.442 -2.127,-3.174 -2.127,-5.199 V 20.323 c 0,-2.025 0.709,-3.747 2.127,-5.164 1.418,-1.419 3.139,-2.127 5.165,-2.127 2.025,0 3.758,0.707 5.199,2.12 1.44,1.414 2.161,3.131 2.161,5.151 v 16.631 h -7.09 V 49.762 H 20.188 V 20.188 C 20.188,14.561 18.207,9.79 14.247,5.875 10.285,1.958 5.537,0 0,0"
             style="fill:#39b54a;fill-opacity:1;fill-rule:nonzero;stroke:none"
             id="path27" /></g><g
           id="g29"
           transform="translate(400.4789,293.8176)"><path
             d="m 0,0 c 0,2.025 -0.709,3.747 -2.127,5.165 -1.418,1.418 -3.14,2.127 -5.165,2.127 -2.025,0 -3.759,-0.709 -5.199,-2.127 -1.441,-1.418 -2.16,-3.14 -2.16,-5.165 v -46.318 c 0,-2.026 0.719,-3.748 2.16,-5.165 1.44,-1.419 3.174,-2.127 5.199,-2.127 2.025,0 3.747,0.708 5.165,2.127 1.418,1.417 2.127,3.139 2.127,5.165 z m -6.954,19.985 c 5.626,0 10.408,-1.981 14.348,-5.941 3.938,-3.961 5.907,-8.733 5.907,-14.314 v -46.184 c 0,-5.627 -1.981,-10.409 -5.941,-14.347 -3.962,-3.939 -8.733,-5.908 -14.314,-5.908 -5.627,0 -10.398,1.98 -14.314,5.942 -3.916,3.96 -5.875,8.732 -5.875,14.313 V -0.27 c 0,5.626 1.98,10.408 5.942,14.348 3.96,3.938 8.71,5.907 14.247,5.907"
             style="fill:#39b54a;fill-opacity:1;fill-rule:nonzero;stroke:none"
             id="path31" /></g><g
           id="g33"
           transform="translate(466.4443,249.1872)"><path
             d="m 0,0 c 0.089,-5.897 -1.442,-10.938 -4.591,-15.124 -2.072,-2.836 -4.997,-4.84 -8.778,-6.01 -2.026,-0.629 -4.389,-0.945 -7.09,-0.945 -4.996,0 -9.138,1.237 -12.423,3.714 -2.747,2.025 -4.919,4.782 -6.516,8.271 -1.598,3.488 -2.532,7.483 -2.802,11.984 l 12.154,0.879 c 0.539,-4.933 1.844,-8.507 3.916,-10.723 1.529,-1.675 3.285,-2.467 5.266,-2.376 2.79,0.089 5.019,1.464 6.684,4.123 0.855,1.305 1.283,3.175 1.283,5.608 0,3.514 -1.598,7.006 -4.793,10.475 -2.521,2.387 -6.303,5.969 -11.344,10.745 -4.232,4.1 -7.224,7.772 -8.979,11.017 -1.892,3.649 -2.836,7.613 -2.836,11.893 0,7.703 2.587,13.539 7.764,17.503 3.196,2.388 7.157,3.582 11.883,3.582 4.547,0 8.441,-1.013 11.682,-3.039 2.52,-1.576 4.557,-3.781 6.11,-6.617 1.553,-2.835 2.487,-6.099 2.802,-9.79 l -12.221,-2.228 c -0.361,3.466 -1.351,6.166 -2.971,8.103 -1.171,1.394 -2.859,2.092 -5.064,2.092 -2.341,0 -4.118,-1.036 -5.334,-3.106 -0.99,-1.666 -1.485,-3.736 -1.485,-6.211 0,-3.872 1.665,-7.809 4.996,-11.815 1.26,-1.531 3.15,-3.332 5.672,-5.402 2.97,-2.476 4.929,-4.21 5.874,-5.199 3.15,-3.152 5.581,-6.257 7.292,-9.318 0.81,-1.441 1.463,-2.769 1.958,-3.983 C -0.676,5.086 -0.046,2.385 0,0"
             style="fill:#333333;fill-opacity:1;fill-rule:nonzero;stroke:none"
             id="path35" /></g><g
           id="g37"
           transform="translate(487.9151,263.5687)"><path
             d="M 0,0 -17.082,49.222 H -3.039 L 6.415,18.839 15.799,49.222 H 29.911 L 12.761,0 V -35.447 H 0 Z"
             style="fill:#333333;fill-opacity:1;fill-rule:nonzero;stroke:none"
             id="path39" /></g><g
           id="g41"
           transform="translate(563.74,249.1872)"><path
             d="m 0,0 c 0.089,-5.897 -1.442,-10.938 -4.591,-15.124 -2.072,-2.836 -4.997,-4.84 -8.778,-6.01 -2.026,-0.629 -4.389,-0.945 -7.09,-0.945 -4.996,0 -9.138,1.237 -12.423,3.714 -2.747,2.025 -4.919,4.782 -6.516,8.271 -1.598,3.488 -2.532,7.483 -2.802,11.984 l 12.154,0.879 c 0.539,-4.933 1.844,-8.507 3.916,-10.723 1.529,-1.675 3.285,-2.467 5.266,-2.376 2.79,0.089 5.019,1.464 6.684,4.123 0.855,1.305 1.283,3.175 1.283,5.608 0,3.514 -1.598,7.006 -4.793,10.475 -2.521,2.387 -6.303,5.969 -11.344,10.745 -4.232,4.1 -7.224,7.772 -8.979,11.017 -1.892,3.649 -2.836,7.613 -2.836,11.893 0,7.703 2.587,13.539 7.764,17.503 3.196,2.388 7.157,3.582 11.883,3.582 4.547,0 8.441,-1.013 11.682,-3.039 2.52,-1.576 4.557,-3.781 6.11,-6.617 1.553,-2.835 2.487,-6.099 2.802,-9.79 l -12.221,-2.228 c -0.361,3.466 -1.351,6.166 -2.971,8.103 -1.171,1.394 -2.859,2.092 -5.064,2.092 -2.341,0 -4.118,-1.036 -5.334,-3.106 -0.99,-1.666 -1.485,-3.736 -1.485,-6.211 0,-3.872 1.665,-7.809 4.996,-11.815 1.26,-1.531 3.15,-3.332 5.672,-5.402 2.97,-2.476 4.929,-4.21 5.874,-5.199 3.15,-3.152 5.581,-6.257 7.292,-9.318 0.81,-1.441 1.463,-2.769 1.958,-3.983 C -0.676,5.086 -0.046,2.385 0,0"
             style="fill:#333333;fill-opacity:1;fill-rule:nonzero;stroke:none"
             id="path43" /></g><g
           id="g45"
           transform="translate(601.2797,293.8176)"><path
             d="m 0,0 c 0,2.025 -0.71,3.747 -2.127,5.165 -1.418,1.418 -3.141,2.127 -5.166,2.127 -2.025,0 -3.758,-0.709 -5.199,-2.127 C -13.933,3.747 -14.653,2.025 -14.653,0 v -46.318 c 0,-2.026 0.72,-3.748 2.161,-5.165 1.441,-1.419 3.174,-2.127 5.199,-2.127 2.025,0 3.748,0.708 5.166,2.127 1.417,1.417 2.127,3.139 2.127,5.165 z m -6.954,19.985 c 5.625,0 10.408,-1.981 14.347,-5.941 C 11.332,10.083 13.3,5.311 13.3,-0.27 v -46.184 c 0,-5.627 -1.98,-10.409 -5.942,-14.347 -3.961,-3.939 -8.732,-5.908 -14.312,-5.908 -5.629,0 -10.398,1.98 -14.315,5.942 -3.916,3.96 -5.874,8.732 -5.874,14.313 V -0.27 c 0,5.626 1.98,10.408 5.941,14.348 3.961,3.938 8.71,5.907 14.248,5.907"
             style="fill:#333333;fill-opacity:1;fill-rule:nonzero;stroke:none"
             id="path47" /></g><g
           id="g49"
           transform="translate(653.606,292.3322)"><path
             d="m 0,0 c 0,2.205 -0.665,3.983 -1.992,5.334 -1.329,1.35 -3.095,2.025 -5.3,2.025 h -7.697 v -27.075 h 7.697 c 2.025,0 3.747,0.72 5.164,2.161 1.419,1.44 2.128,3.174 2.128,5.199 z m -7.63,20.391 c 6.212,0 11.163,-1.959 14.854,-5.875 3.421,-3.736 5.131,-8.507 5.131,-14.314 v -12.288 c 0,-5.581 -1.947,-10.353 -5.84,-14.314 -3.894,-3.962 -8.608,-5.942 -14.145,-5.942 h -7.359 v -31.869 h -12.762 v 84.602 z"
             style="fill:#333333;fill-opacity:1;fill-rule:nonzero;stroke:none"
             id="path51" /></g><g
           id="g53"
           transform="translate(304.8972,301.0808)"><path
             d="M 0,0 C -0.526,1.515 0.198,3.087 2.003,4.084 3.653,4.996 6.337,3.915 6.872,2.114 7.45,0.164 6.942,-1.552 4.999,-2.527 3.155,-3.454 1.015,-2.524 0,0 m -88.54,-97.116 c 2.368,-0.933 4.215,-0.63 6.142,0.655 12.405,8.269 19.714,19.7 20.772,34.662 0.48,6.779 0.092,13.618 0.121,20.429 0.013,2.999 0.031,6 0.136,8.997 0.349,9.99 10.475,15.132 17.262,14.127 3.611,-0.534 7.166,-1.44 10.413,-2.11 -0.432,-3.378 -0.829,-6.488 -1.243,-9.733 3.091,0.39 3.091,0.39 7.626,5.265 2.128,-4.891 2.623,-5.377 7.876,-7.615 1.924,4.646 -1.161,7.784 -3.256,10.977 3.952,1.347 7.851,2.544 11.639,4.024 1.797,0.702 3.456,1.84 5.048,2.964 3.664,2.588 7.553,4.969 10.768,8.043 2.5,2.391 4.284,5.604 6.07,8.639 1.188,2.017 -0.9,3.278 -2.175,3.337 C 4.565,5.732 0.447,5.317 -3.664,5.259 c -3.174,-0.045 -6.421,-0.3 -9.512,0.242 -6.242,1.093 -12.443,1.227 -18.586,-0.11 -3.065,-0.668 -5.728,-0.29 -8.306,1.235 -3.482,2.061 -6.909,4.217 -10.362,6.327 -13.198,8.066 -27.083,9.255 -41.596,4.151 -0.546,-0.192 -1.102,-0.353 -1.653,-0.528 -0.543,-0.172 -1.086,-0.345 -2.004,-0.637 1.145,-3.102 2.93,-5.637 5.57,-7.216 3.15,-1.885 6.573,-3.343 9.957,-4.801 3.324,-1.433 6.775,-2.544 7.539,-6.845 0.094,-0.527 1.416,-1.269 2.077,-1.185 2.259,0.287 4.557,0.674 6.696,1.431 4.782,1.693 9.432,3.76 14.232,5.395 1.556,0.53 3.409,0.189 5.126,0.246 0.027,-0.286 0.053,-0.571 0.079,-0.857 -3.446,-1.941 -6.935,-3.813 -10.326,-5.847 -2.368,-1.421 -4.742,-2.895 -6.868,-4.644 -3.917,-3.224 -8.441,-3.784 -13.085,-2.94 -6.362,1.156 -12.656,2.717 -18.945,4.24 -11.549,2.798 -23.18,4.568 -35.004,2.186 -5.025,-1.012 -9.921,-2.671 -15.346,-4.165 7.876,-10.369 7.878,-22.292 10.298,-33.417 5.676,-26.097 19.999,-44.727 45.143,-54.636"
             style="fill:#333333;fill-opacity:1;fill-rule:nonzero;stroke:none"
             id="path55" /></g><g
           id="g57"
           transform="translate(296.1975,277.713)"><path
             d="m 0,0 c -1.406,-0.549 -3.198,-1.058 -4.198,-1.546 v -1.001 c 0,-2.115 1,-4.544 0,-7.273 v -44.076 c 0,-3.013 -2.513,-5.817 -5.527,-5.817 h -42.599 c -2.207,-4 -5.028,-8 -8.461,-12 H 1.643 c 3.014,0 6.159,3.436 6.159,6.449 V 4.2 C 6.802,4.031 6.978,3.865 6.737,3.694 4.825,2.344 2.421,0.946 0,0"
             style="fill:#39b54a;fill-opacity:1;fill-rule:nonzero;stroke:none"
             id="path59" /></g><g
           id="g61"
           transform="translate(185,303.6047)"><path
             d="m 0,0 v 16.158 c 0,3.014 2.514,5.237 5.527,5.237 h 23.425 c 5.391,1 10.744,2.398 15.953,2.398 5.215,0 10.35,-1.398 15.366,-2.398 h 41.202 c 3.013,0 5.527,-2.223 5.527,-5.237 V 9.394 c 0,-0.048 0.557,-0.095 0.854,-0.147 0.956,-0.167 2.073,-0.245 3.555,-0.245 0.861,0 1.734,0.025 2.668,0.05 0.693,0.02 1.733,0.039 2.422,0.049 0.713,0.01 1.501,0.031 2.501,0.059 v 18.366 c 0,3.014 -3.146,5.869 -6.159,5.869 H -5.841 C -8.854,33.395 -12,30.54 -12,27.526 V -1.457 c 1,0.095 1.181,0.188 1.619,0.276 C -7.148,-0.53 -3,-0.137 0,0"
             style="fill:#39b54a;fill-opacity:1;fill-rule:nonzero;stroke:none"
             id="path63" /></g><g
           id="g65"
           transform="translate(173,233.0915)"><path
             d="m 0,0 v -20.642 c 0,-3.014 3.146,-6.449 6.159,-6.449 H 24.044 C 14.208,-20.091 6,-10.625 0,0"
             style="fill:#39b54a;fill-opacity:1;fill-rule:nonzero;stroke:none"
             id="path67" /></g><g
           id="g69"
           transform="translate(292,273.7437)"><path
             d="M 0,0 V -7.273 C 1,-4.544 0,-2.115 0,0"
             style="fill:#000000;fill-opacity:1;fill-rule:nonzero;stroke:none"
             id="path71" /></g></g></g></g></svg>
